<svg version="1.1" xmlns="http://www.w3.org/2000/svg" xmlns:xlink="http://www.w3.org/1999/xlink" width="666.93928" height="496.40421" viewBox="0,0,666.93928,496.40421"><g transform="translate(99.69361,84.239)"><g data-paper-data="{&quot;isPaintingLayer&quot;:true}" fill="#000000" fill-rule="nonzero" stroke="none" stroke-width="0.5" stroke-linecap="butt" stroke-linejoin="miter" stroke-miterlimit="10" stroke-dasharray="" stroke-dashoffset="0" style="mix-blend-mode: normal"><path d="M132.51563,-76.66527c84.99523,-0.90034 170.0001,-0.12824 255,0c19.79441,0.02986 29.69415,19.85411 23.16289,35.02971l130.3985,6.40686l0.60265,-0.13101l1.11973,0.21563l0.1818,0.00893l3.88237,0.58185l1.06263,0.39652l4.90363,0.94432l1.4156,1.41369l1.06735,0.39828l8.21918,7.83466l1.69013,7.74439l2.02359,7.66401l-3.74742,10.71884l-0.76871,0.84081l-0.61612,1.90337l-3.93499,3.0746l-0.76531,0.83709l-3.19101,2.28667l-0.15777,0.09077l-0.89855,0.70208l-0.59616,0.15793l-66.78304,38.4248l0.72075,0.9842l1.62647,1.02418l2.17173,4.16234l3.91195,5.34184l0.08744,2.32338l0.75447,1.44601l-0.52638,4.61476l0.1115,2.96285l-0.63934,1.66469l-0.22435,1.96686c4.73163,13.91633 1.7689,34.2265 1.73479,42.29459c-0.05304,12.54411 -3.59103,23.84052 -5.14466,36.09501c-1.71529,13.52964 0.28462,27.16044 -1.00825,40.66577c-0.45474,4.75023 -0.76407,9.86289 -1.53752,14.75706c5.05524,3.45583 8.93994,8.77601 10.39572,15.54109c2.11311,9.81975 -2.5716,11.05662 -2.70529,17.4464c-0.22782,10.88869 -0.19185,21.78384 0,32.67323c0.03468,1.96859 0.87007,3.85682 1,5.82143c0.4869,7.36194 -1.81598,15.3345 -6.30306,21.19731c1.93926,3.31281 2.97868,7.16145 3.91243,10.89644c2.08123,8.32491 0.00097,27.00642 -2.65656,35.49162c-1.21678,3.88503 -3.1771,7.24105 -5.69907,10.08383l-0.05518,0.35177l0.04015,0.14857l-0.15123,0.55955l-1.09055,6.95224l-1.39754,3.66855l-0.28291,0.56582l-0.19151,0.78878l-0.42899,0.57319l-0.36351,1.34499l-1.18126,1.02018l-0.64813,1.0262l-1.49621,1.53777l-1.2856,1.71774l-2.62785,2.30442l-0.87928,0.9037l-0.74926,0.31219l-12.69521,9.06801l-1.76943,1.01447l-0.20131,0.16244l-0.72718,0.3699l-0.70778,0.40579l-0.24617,0.07945l-1.81794,0.92473l-15.69679,6.10431l-0.31447,0.23769l-0.81804,0.20273l-1.1707,0.45527l-3.78222,1.05174l-1.51201,0.09514l-1.47051,0.36443l-3.92339,0.13558l-1.25345,-0.08175l-0.84112,0.05292l-0.37144,-0.132l-43.53399,-2.83917l-0.84511,-0.14054l-0.85623,-0.029l-65.34328,-8.77746h-81.58543l-7.42345,5.75632l-1.75492,1.10002l-1.35872,1.18413l-6.35321,2.05291l-2.32625,0.85316l-0.26992,-0.01426l-1.85557,0.59959l-2.94581,-0.85326l-6.26792,-0.33115l-3.18371,-2.40652l-1.98315,-0.57442l-3.14197,-3.29959l-3.63469,-2.74741l-0.55107,-1.31952h-141.2759l-2.17971,0.63796l-30.82757,12.5237l-0.44647,0.13139l-0.41938,0.20178l-11,4l-3.80456,0.96783l-0.42625,0.01737l-0.40652,0.12935l-3.90625,0.39063h-4l-1.24556,-0.12456l-2.2483,0.45501l-5.98941,-2.49559l-3.01673,-0.95987l-0.6647,-0.57406l-0.81072,-0.3378l-2.20766,-2.26898l-4.91067,-4.24103l-0.41687,-1.54242l-0.67955,-0.47846l-1.17275,-1.89986l-1.60021,-1.55696l-1.32741,-3.18579l-0.63665,-1.03137l-1.28744,-3.58645l-1.11582,-2.67797l0.19439,-0.9605l-0.11749,-0.46997l-0.08637,-0.59016l-0.17459,-0.57032l-2.94132,-14.7066l-0.90484,-1.01596l-1.54571,-7.63765l-0.73293,-0.3791l-1.68854,-1.38153l-3.0408,-2.08792l-0.48353,-1.22977l-1.18369,-1.44674l-0.39159,-0.28317l-0.18856,-0.4259l-0.54756,-0.66924l-4.1432,-8.01019l-0.16793,-2.29503l-1.01369,-2.28965l0.6012,-3.3478l-0.24822,-3.39228l1.24731,-2.17124l0.40673,-2.26493l4.95724,-7.5336l0.61447,-0.60839l0.23201,-0.40388l0.41903,-0.24072l1.51134,-1.49637l-0.91254,-5.47527l-0.08409,-1.2823l-0.20738,-1.26821l-1,-16l0.02912,-0.7814l-0.07781,-0.77806v-1.34256l-0.96545,-18.34347l0.03102,-0.65826l-0.06557,-0.65572v-13l0.14683,-1.46835l-0.01222,-0.14182l0.14106,-1.14659l0.11495,-1.1495l0.04316,-0.13564l0.18019,-1.46463l4.85166,-21.48591l-0.2239,-0.08037l-1.62693,-1.00428l-3.06793,-0.82917l-1.96928,-2.28022l-1.00984,-0.62336l-2.08058,-2.95502l-2.36218,-2.73515l-0.35983,-1.13088l-1.73452,-2.46351l-0.06033,-3.17743l-0.5797,-1.82192l-0.39062,-3.90625v-7l0.28766,-2.87657l-0.00641,-0.26406l0.07086,-0.3805l0.03851,-0.38512l0.08009,-0.2517l0.52929,-2.84205l6.63241,-22.73968l-0.03725,-0.16431l0.31769,-0.81535l15.85638,-62.4345l0.62302,-1.7154l0.53083,-1.74614l3.20915,-7.70195l-0.64969,-2.32515l0.56257,-1.68627l-0.41049,0.14367l-16.52462,6.46616l-3.78001,1.05967l-0.72827,0.04736l-0.69545,0.22128l-3.90625,0.39063h-2l-1.10662,-0.11066l-0.56268,0.03659l-0.36699,-0.12956l-0.72053,-0.07205l-1.815,0.05196l-4.96733,-1.95919l-2.96086,-0.94209l-0.48105,-0.41545l-2.15387,-0.84952l-1.69554,-2.47497l-4.26329,-3.68194l-1.1343,-4.1969l-1.36841,-1.99746l-0.30569,-4.19669l-1.09786,-4.06207l0.63172,-2.33738l-0.31583,-4.336l2.80762,-4.88361l0.78274,-2.89615l1.75231,-1.51336l0.3168,-0.55104l2.48341,-1.86732l1.43634,-1.24048l-0.38037,-1.45813l2.33749,-6.62289l0.42422,-3.01887l7.60682,-8.43049l1.52339,-0.7031l1.18987,-0.84733l14,-8l2.08033,-0.92771l2.06439,-0.96267l19.69477,-6.89317l10.2,-3.86897c-1.24865,-1.21477 -2.47406,-2.60896 -2.80046,-3.81663l0.00001,0.00003c-0.58564,-2.16686 -0.41553,-4.47583 -0.81993,-6.68371c-0.44146,-2.41023 -1.69964,-5.59929 -1.00308,-8.17659c0.16636,-0.61554 0.33651,-1.23058 0.51155,-1.84447c-11.24078,-2.17657 -22.5171,-4.65628 -34.05598,-7.18354c-16.74787,-3.66814 -33.85231,-3.08462 -43.22545,-19.40083c-0.47545,-0.82763 0.08612,-1.94357 -0.19047,-2.8571c-0.27659,-0.91352 -1.36286,-1.53054 -1.42635,-2.4829c-1.61441,-24.21609 23.57527,-37.28154 44.49809,-40.42961c12.52698,-1.88482 24.96942,-5.22882 37.63735,-5.26602c20.57327,-0.06041 41.19147,-1.29739 61.72005,0.05924c1.97258,0.13036 23.1177,0.44147 32.82048,2.56244c6.94305,1.51771 13.80554,3.41538 20.7908,4.72518c4.36658,0.81878 8.78778,1.43527 13.22512,1.65314c3.8577,0.18941 7.84972,0.03843 11.81245,-0.0291c3.14759,-1.24501 6.4766,-1.93749 9.6311,-1.9709z"/></g></g></svg>